{
  "accessors": [
    {
      "bufferView": 2,
      "componentType": 5126,
      "count": 6486,
      "max": [
        8.951887130737305,
        9.353142738342285,
        1.3749868869781494
      ],
      "min": [
        -8.951887130737305,
        -0.20000219345092773,
        -1.886672019958496
      ],
      "type": "VEC3"
    },
    {
      "bufferView": 2,
      "byteOffset": 77832,
      "componentType": 5126,
      "count": 6486,
      "max": [
        1.0,
        1.0,
        1.0
      ],
      "min": [
        -1.0,
        -1.0,
        -1.0
      ],
      "type": "VEC3"
    },
    {
      "bufferView": 1,
      "componentType": 5126,
      "count": 6486,
      "max": [
        1.0,
        1.0
      ],
      "min": [
        0.0,
        0.0
      ],
      "type": "VEC2"
    },
    {
      "bufferView": 0,
      "componentType": 5125,
      "count": 14988,
      "type": "SCALAR"
    },
    {
      "bufferView": 2,
      "byteOffset": 155664,
      "componentType": 5126,
      "count": 180,
      "max": [
        8.890924453735352,
        9.237907409667969,
        1.4807087182998657
      ],
      "min": [
        -8.890924453735352,
        1.8051066398620605,
        0.22510598599910736
      ],
      "type": "VEC3"
    },
    {
      "bufferView": 2,
      "byteOffset": 157824,
      "componentType": 5126,
      "count": 180,
      "max": [
        1.0,
        0.9999175071716309,
        0.999916672706604
      ],
      "min": [
        -1.0,
        -0.9999171495437622,
        -0.999916672706604
      ],
      "type": "VEC3"
    },
    {
      "bufferView": 1,
      "byteOffset": 51888,
      "componentType": 5126,
      "count": 180,
      "max": [
        0.5012199878692627,
        1.0
      ],
      "min": [
        0.0,
        0.0
      ],
      "type": "VEC2"
    },
    {
      "bufferView": 0,
      "byteOffset": 59952,
      "componentType": 5125,
      "count": 492,
      "type": "SCALAR"
    },
    {
      "bufferView": 2,
      "byteOffset": 159984,
      "componentType": 5126,
      "count": 5651,
      "max": [
        0.49567556381225586,
        1.0021395683288574,
        0.14341045916080475
      ],
      "min": [
        -0.5253927707672119,
        -1.0738520622253418,
        -0.5367420315742493
      ],
      "type": "VEC3"
    },
    {
      "bufferView": 2,
      "byteOffset": 227796,
      "componentType": 5126,
      "count": 5651,
      "max": [
        0.9984081983566284,
        1.0,
        0.9999997615814209
      ],
      "min": [
        -0.9999910593032837,
        -1.0,
        -0.9999867677688599
      ],
      "type": "VEC3"
    },
    {
      "bufferView": 1,
      "byteOffset": 53328,
      "componentType": 5126,
      "count": 5651,
      "max": [
        1.0000001192092896,
        1.0000001192092896
      ],
      "min": [
        -8.940696716308594e-08,
        0.0
      ],
      "type": "VEC2"
    },
    {
      "bufferView": 0,
      "byteOffset": 61920,
      "componentType": 5125,
      "count": 17088,
      "type": "SCALAR"
    }
  ],
  "asset": {
    "extras": {
      "author": "Georgiy_Liahov (https://sketchfab.com/georgiyaliahov)",
      "license": "CC-BY-4.0 (http://creativecommons.org/licenses/by/4.0/)",
      "source": "https://sketchfab.com/3d-models/cinema-screen-2221cf86c46f4716bf7a904c642a5542",
      "title": "Cinema Screen"
    },
    "generator": "Sketchfab-12.68.0",
    "version": "2.0"
  },
  "bufferViews": [
    {
      "buffer": 0,
      "byteLength": 130272,
      "name": "floatBufferViews",
      "target": 34963
    },
    {
      "buffer": 0,
      "byteLength": 98536,
      "byteOffset": 130272,
      "byteStride": 8,
      "name": "floatBufferViews",
      "target": 34962
    },
    {
      "buffer": 0,
      "byteLength": 295608,
      "byteOffset": 228808,
      "byteStride": 12,
      "name": "floatBufferViews",
      "target": 34962
    }
  ],
  "buffers": [
    {
      "byteLength": 524416,
      "uri": "scene.bin"
    }
  ],
  "materials": [
    {
      "doubleSided": true,
      "name": "black",
      "pbrMetallicRoughness": {
        "baseColorFactor": [
          0.0159949,
          0.0159949,
          0.0159949,
          1.0
        ],
        "metallicFactor": 0.291429,
        "roughnessFactor": 0.5
      }
    },
    {
      "doubleSided": true,
      "name": "wite",
      "pbrMetallicRoughness": {
        "metallicFactor": 0.0,
        "roughnessFactor": 0.5
      }
    }
  ],
  "meshes": [
    {
      "name": "Object_0",
      "primitives": [
        {
          "attributes": {
            "NORMAL": 1,
            "POSITION": 0,
            "TEXCOORD_0": 2
          },
          "indices": 3,
          "material": 0,
          "mode": 4
        }
      ]
    },
    {
      "name": "Object_1",
      "primitives": [
        {
          "attributes": {
            "NORMAL": 5,
            "POSITION": 4,
            "TEXCOORD_0": 6
          },
          "indices": 7,
          "material": 1,
          "mode": 4
        }
      ]
    },
    {
      "name": "Object_2",
      "primitives": [
        {
          "attributes": {
            "NORMAL": 9,
            "POSITION": 8,
            "TEXCOORD_0": 10
          },
          "indices": 11,
          "material": 0,
          "mode": 4
        }
      ]
    }
  ],
  "nodes": [
    {
      "children": [
        1
      ],
      "matrix": [
        1.0,
        0.0,
        0.0,
        0.0,
        0.0,
        2.220446049250313e-16,
        -1.0,
        0.0,
        0.0,
        1.0,
        2.220446049250313e-16,
        0.0,
        0.0,
        0.0,
        0.0,
        1.0
      ],
      "name": "Sketchfab_model"
    },
    {
      "children": [
        2
      ],
      "name": "root"
    },
    {
      "children": [
        3,
        6
      ],
      "matrix": [
        1.0,
        0.0,
        0.0,
        0.0,
        0.0,
        2.220446049250313e-16,
        1.0,
        0.0,
        0.0,
        -1.0,
        2.220446049250313e-16,
        0.0,
        0.0,
        0.0,
        0.0,
        1.0
      ],
      "name": "GLTF_SceneRootNode"
    },
    {
      "children": [
        4,
        5
      ],
      "name": "screen_1_0"
    },
    {
      "mesh": 0,
      "name": "Object_4"
    },
    {
      "mesh": 1,
      "name": "Object_5"
    },
    {
      "children": [
        7
      ],
      "matrix": [
        0.9930322659213899,
        0.0,
        -0.11784277168766023,
        0.0,
        0.0,
        1.0,
        0.0,
        0.0,
        0.11784277168766023,
        0.0,
        0.9930322659213899,
        0.0,
        16.926237106323242,
        6.040215492248535,
        0.024713801220059395,
        1.0
      ],
      "name": "KPT-535-T_1"
    },
    {
      "mesh": 2,
      "name": "Object_7"
    }
  ],
  "scene": 0,
  "scenes": [
    {
      "name": "Sketchfab_Scene",
      "nodes": [
        0
      ]
    }
  ]
}
